<svg width="51" height="32" viewBox="0 0 51 32" fill="none" xmlns="http://www.w3.org/2000/svg">
<g clip-path="url(#clip0_36_2298)">
<path d="M15.5249 0.724065C15.5765 0.723938 15.6281 0.72381 15.6813 0.723679C18.2234 0.723009 18.2234 0.723009 19.2249 1.22571C19.3052 1.24958 19.3856 1.27327 19.4664 1.2954C20.101 1.47237 20.7008 1.69669 21.2811 2.00827C21.4046 2.07344 21.531 2.13244 21.6571 2.19252C22.614 2.67164 23.4994 3.25713 23.8947 4.2903C23.9142 4.3395 23.9142 4.3395 23.9341 4.38968C24.1171 4.96154 24.015 5.68662 23.7634 6.21518C23.4198 6.87008 22.9303 7.32602 22.2226 7.56772C21.3213 7.84709 20.4853 7.70658 19.6616 7.27817C19.5546 7.22174 19.4477 7.16512 19.3409 7.10831C17.5692 6.16628 15.7954 6.08572 13.8253 6.18743C13.8253 6.21954 13.8253 6.25164 13.8253 6.28472C13.781 6.29131 13.7367 6.29789 13.691 6.30467C11.9167 6.59951 10.3214 7.51101 9.03195 8.74625C8.96926 8.80624 8.90594 8.86558 8.84253 8.92482C7.47468 10.2366 6.66518 12.0455 6.28547 13.8732C6.2751 13.9231 6.26473 13.973 6.25405 14.0243C6.12151 14.6817 6.06205 15.3135 6.08652 15.9837C6.09075 16.1068 6.09257 16.2298 6.09393 16.353C6.10695 17.0036 6.23185 17.6198 6.38276 18.2512C6.39308 18.2952 6.40339 18.3391 6.41402 18.3843C6.44325 18.5074 6.4735 18.6302 6.50437 18.7529C6.51728 18.8055 6.51728 18.8055 6.53045 18.8592C6.60951 19.1591 6.73722 19.4308 6.8692 19.7106C6.90826 19.7975 6.94721 19.8846 6.98606 19.9716C7.38633 20.8493 7.88193 21.6622 8.52311 22.386C8.55722 22.4254 8.59133 22.4648 8.62648 22.5053C8.73598 22.6297 8.84773 22.7514 8.96091 22.8724C9.02525 22.9416 9.02525 22.9416 9.09088 23.0121C10.5204 24.5137 12.7654 25.5883 14.8502 25.6496C15.0204 25.6517 15.1905 25.6519 15.3607 25.6513C15.4215 25.651 15.4822 25.6508 15.5448 25.6505C17.7762 25.636 19.9093 24.9744 21.6571 23.5535C21.6865 23.5298 21.716 23.5062 21.7463 23.4818C22.266 23.0623 22.7218 22.5907 23.1468 22.0759C23.4637 21.7113 23.8726 21.4561 24.3325 21.3158C24.3859 21.2995 24.3859 21.2995 24.4403 21.2828C25.08 21.1231 25.7395 21.1621 26.3269 21.4618C26.3912 21.4935 26.3912 21.4935 26.4567 21.5258C26.9925 21.8174 27.3878 22.2714 27.6403 22.8238C27.6741 22.9445 27.6861 23.0384 27.689 23.1643C27.7211 23.1643 27.7532 23.1643 27.7863 23.1643C27.856 23.5196 27.8426 23.8743 27.8349 24.2345C27.8341 24.273 27.8333 24.3115 27.8324 24.3512C27.7663 25.2471 27.0035 26.0315 26.4242 26.6515C26.3919 26.6862 26.3596 26.7209 26.3263 26.7566C26.1107 26.9846 25.8844 27.1928 25.6459 27.3964C25.5891 27.4466 25.5323 27.497 25.4757 27.5474C24.1926 28.6814 22.7586 29.5768 21.1706 30.2177C21.1297 30.2343 21.0888 30.2509 21.0467 30.268C20.4738 30.4989 19.9095 30.7096 19.3009 30.8237C19.18 30.8375 19.18 30.8375 19.1276 30.8988C19.0133 30.9102 18.8987 30.9189 18.784 30.9261C18.7213 30.9302 18.6585 30.9343 18.5938 30.9385C18.5452 30.9414 18.4966 30.9444 18.4466 30.9474C18.4466 30.9795 18.4466 31.0116 18.4466 31.0447C18.0364 31.1306 17.6301 31.171 17.2122 31.1967C17.1636 31.1998 17.1636 31.1998 17.114 31.2029C14.1663 31.3857 14.1663 31.3857 13.1434 31.0443C12.9915 30.9938 12.8499 30.9708 12.6913 30.9504C12.4684 30.9178 12.2672 30.8743 12.0561 30.7973C11.8806 30.7363 11.7024 30.6858 11.5239 30.6343C10.5865 30.3605 10.5865 30.3605 10.2316 30.1723C10.0555 30.0838 9.87224 30.0123 9.69 29.9375C9.49394 29.8562 9.30022 29.7701 9.10684 29.6827C9.10684 29.6505 9.10684 29.6184 9.10684 29.5854C9.06621 29.5763 9.06621 29.5763 9.02476 29.5671C8.90151 29.5338 8.7868 29.4885 8.66904 29.4394C8.66904 29.4073 8.66904 29.3752 8.66904 29.3421C8.63537 29.3381 8.6017 29.334 8.567 29.3298C8.39278 29.285 8.26032 29.2007 8.11267 29.102C8.06813 29.0726 8.06813 29.0726 8.02268 29.0427C7.92962 28.981 7.83712 28.9185 7.7448 28.8557C7.71659 28.8365 7.68838 28.8174 7.65932 28.7976C6.86806 28.2557 6.13488 27.638 5.45852 26.9586C5.40967 26.9108 5.36077 26.863 5.31182 26.8153C5.02387 26.5331 4.74935 26.2488 4.49931 25.9317C4.4207 25.8321 4.34127 25.7349 4.25913 25.6383C3.27129 24.4639 2.48143 23.0325 1.95541 21.5913C1.91805 21.4903 1.87937 21.3898 1.84017 21.2896C1.65815 20.8219 1.51355 20.352 1.39063 19.8656C1.38128 19.829 1.37192 19.7923 1.36229 19.7546C1.18724 19.0648 1.06118 18.3753 0.983238 17.6675C0.977681 17.6184 0.972124 17.5692 0.966398 17.5186C0.534174 13.5524 1.74954 9.44926 4.23848 6.33282C4.30427 6.25161 4.37055 6.17083 4.43699 6.09014C4.45894 6.06318 4.4809 6.03622 4.50352 6.00844C5.57174 4.70204 6.88215 3.59848 8.32853 2.73368C8.38899 2.69669 8.44942 2.65963 8.50981 2.62252C9.03254 2.30262 9.5571 2.02857 10.1327 1.81381C10.3505 1.73228 10.5618 1.63933 10.7729 1.5419C10.9625 1.46009 11.1593 1.41177 11.3587 1.35967C11.4747 1.32738 11.585 1.29033 11.6972 1.24699C12.0824 1.09894 12.4418 1.0546 12.8525 1.03113C12.8525 0.999027 12.8525 0.966922 12.8525 0.933844C12.9933 0.910201 13.1341 0.886957 13.2751 0.863918C13.3332 0.854089 13.3332 0.854089 13.3926 0.844061C14.0998 0.72945 14.8102 0.725752 15.5249 0.724065Z" fill="url(#paint0_linear_36_2298)"/>
<path d="M35.4721 0.827952C35.5344 0.827028 35.5344 0.827028 35.598 0.826086C35.6436 0.825718 35.6892 0.82535 35.7362 0.824971C35.7834 0.824501 35.8305 0.824031 35.8791 0.823547C36.0333 0.82233 36.1874 0.821727 36.3416 0.821361C36.3937 0.821217 36.4458 0.821073 36.4995 0.820926C37.5406 0.82027 38.4957 0.936735 39.5096 1.17707C39.5096 1.20918 39.5096 1.24128 39.5096 1.27436C39.5617 1.27235 39.6139 1.27035 39.6677 1.26828C39.8463 1.27424 39.8945 1.29432 40.0446 1.37165C40.1211 1.39215 40.1982 1.41041 40.2757 1.42637C40.3146 1.43453 40.3535 1.44268 40.3935 1.45108C40.4229 1.45697 40.4522 1.46287 40.4824 1.46894C40.4824 1.50104 40.4824 1.53315 40.4824 1.56623C40.5758 1.58429 40.5758 1.58429 40.6709 1.60271C41.6064 1.81217 42.5559 2.35505 43.3525 2.87962C43.4005 2.91112 43.4005 2.91112 43.4494 2.94326C43.8747 3.2244 44.2761 3.52351 44.6659 3.85251C44.7069 3.88512 44.7479 3.91772 44.7901 3.95132C45.5941 4.5907 46.3279 5.32268 46.9521 6.13879C46.9837 6.17926 46.9837 6.17926 47.0159 6.22055C47.3965 6.70898 47.7363 7.21581 48.0596 7.74377C48.1081 7.82263 48.1576 7.90088 48.2074 7.97892C48.423 8.32148 48.5869 8.68881 48.755 9.05617C48.7945 9.14158 48.8355 9.22632 48.8766 9.31094C49.6135 10.8367 50.0476 12.5714 50.2013 14.2544C50.2082 14.3265 50.2159 14.3984 50.2243 14.4703C50.2698 14.8867 50.2673 15.3027 50.2663 15.721C50.266 15.8481 50.2663 15.9752 50.2666 16.1023C50.267 16.8686 50.2375 17.614 50.0988 18.3698C50.0825 18.4613 50.0825 18.4613 50.0657 18.5547C49.7918 20.065 49.4007 21.5954 48.7033 22.9697C48.6731 23.0317 48.6429 23.0937 48.6129 23.1558C48.2454 23.9099 47.8517 24.637 47.3413 25.3047C47.3202 25.3325 47.2991 25.3603 47.2773 25.3889C46.6434 26.22 45.9597 27.0197 45.1523 27.6882C45.1149 27.7202 45.0776 27.7522 45.0391 27.7851C44.4526 28.2786 43.8177 28.71 43.1579 29.0989C43.1075 29.1296 43.0571 29.1604 43.0051 29.192C42.2613 29.6344 41.4442 30.0066 40.6193 30.2694C40.4606 30.321 40.3127 30.3743 40.1602 30.4427C39.9789 30.5166 39.8056 30.5524 39.6135 30.586C39.5076 30.6026 39.5076 30.6026 39.4123 30.6555C39.2562 30.6866 39.0984 30.7081 38.941 30.7315C38.8979 30.7383 38.8548 30.745 38.8104 30.752C38.5702 30.7881 38.3417 30.8091 38.0989 30.8015C38.0989 30.8336 38.0989 30.8657 38.0989 30.8988C37.9438 30.9002 37.7888 30.901 37.6337 30.9018C37.5902 30.9022 37.5466 30.9026 37.5017 30.903C36.7778 30.9057 36.2092 30.6684 35.6896 30.1619C35.1618 29.5532 34.9328 28.7941 34.9672 27.9934C35.0227 27.2307 35.3095 26.5762 35.8711 26.0469C36.4033 25.6172 36.9786 25.4719 37.6428 25.408C39.6554 25.2077 41.5419 23.9606 42.8174 22.4346C43.749 21.2921 44.3565 20.0336 44.8118 18.6404C44.8439 18.6404 44.876 18.6404 44.9091 18.6404C44.915 18.5872 44.921 18.5339 44.9271 18.4791C44.9467 18.3209 44.9736 18.1659 45.005 18.0097C45.1485 17.2519 45.1738 16.5065 45.1766 15.7369C45.1774 15.6623 45.1774 15.6623 45.1781 15.5862C45.1892 14.1953 44.911 12.8978 44.3253 11.6356C44.2955 11.5686 44.2658 11.5015 44.236 11.4344C43.854 10.5837 43.327 9.86563 42.7292 9.15474C42.7076 9.12906 42.686 9.10338 42.6638 9.07692C42.1264 8.44614 41.4668 7.94853 40.7743 7.50084C40.7434 7.48069 40.7125 7.46055 40.6806 7.43979C40.2957 7.19145 39.91 6.99243 39.4805 6.83274C39.3459 6.78266 39.2154 6.72828 39.0839 6.67084C38.8528 6.57863 38.6155 6.51334 38.3755 6.4489C38.3202 6.43385 38.3202 6.43385 38.2638 6.41849C37.6988 6.27176 37.1464 6.2195 36.5635 6.22392C36.4678 6.22447 36.4678 6.22447 36.37 6.22503C34.384 6.24682 32.5784 6.89806 31.0454 8.18186C31.0189 8.204 30.9924 8.22614 30.965 8.24896C30.636 8.51609 30.636 8.51609 30.3278 8.80568C30.2671 8.86288 30.2671 8.86288 30.1698 8.86288C30.1538 8.91104 30.1377 8.95919 30.1212 9.00881C30.0503 9.06845 29.9791 9.12784 29.9063 9.18515C29.818 9.25688 29.818 9.25688 29.729 9.38884C29.339 9.87266 28.6107 10.1195 28.0133 10.1896C27.3233 10.2178 26.7343 9.94422 26.2213 9.50133C25.6781 8.99491 25.4106 8.32304 25.3845 7.589C25.4033 6.69557 25.8079 5.98143 26.4242 5.36048C26.4777 5.30521 26.5312 5.24992 26.5846 5.1946C26.9189 4.85162 27.264 4.53844 27.6403 4.24167C27.7001 4.19234 27.7597 4.14286 27.8191 4.09326C28.5278 3.50426 29.282 3.0107 30.0726 2.53911C30.1022 2.52127 30.1319 2.50343 30.1624 2.48505C30.4723 2.29869 30.7754 2.13776 31.1135 2.00783C31.1552 1.99152 31.197 1.97522 31.24 1.95842C31.2781 1.94394 31.3163 1.92945 31.3556 1.91453C31.4918 1.85738 31.4918 1.85738 31.6442 1.76213C31.8274 1.65542 32.0122 1.59723 32.2159 1.5419C32.2518 1.53175 32.2877 1.5216 32.3246 1.51115C32.4332 1.48047 32.542 1.45036 32.6507 1.42029C32.7724 1.38607 32.894 1.35151 33.0155 1.31692C33.0708 1.30131 33.126 1.2857 33.1829 1.26961C33.3063 1.23321 33.4266 1.1932 33.5476 1.14971C34.05 0.97976 34.5638 0.918354 35.0901 0.895467C35.2414 0.884279 35.3139 0.830024 35.4721 0.827952Z" fill="url(#paint1_linear_36_2298)"/>
<path d="M18.0088 12.4443C18.074 12.4986 18.1389 12.5533 18.2034 12.6085C18.2349 12.6331 18.2664 12.6577 18.2989 12.683C19.0195 13.2652 19.556 14.2184 19.6627 15.138C19.7728 16.4537 19.5013 17.5998 18.6442 18.6161C18.4082 18.8845 18.1564 19.116 17.8629 19.3214C17.8227 19.3507 17.7825 19.38 17.7411 19.4101C16.9333 19.9651 15.8706 20.216 14.9026 20.0718C14.7204 20.0372 14.5406 19.9976 14.3605 19.9538C14.3175 19.9438 14.2746 19.9338 14.2303 19.9236C13.6516 19.7711 13.1543 19.4684 12.7066 19.0782C12.6774 19.056 12.6482 19.0338 12.6182 19.0109C11.7773 18.3593 11.3499 17.2807 11.2098 16.2567C11.0635 14.9932 11.4999 13.9239 12.2688 12.949C13.6564 11.212 16.335 11.1761 18.0088 12.4443Z" fill="url(#paint2_linear_36_2298)"/>
<path d="M38.6674 12.5719C39.4596 13.2478 39.9587 14.2079 40.0842 15.2443C40.0888 15.3223 40.0917 15.4004 40.0933 15.4784C40.0946 15.5319 40.096 15.5853 40.0973 15.6403C40.0994 15.8136 40.0971 15.9863 40.0933 16.1595C40.0936 16.2029 40.0939 16.2464 40.0943 16.2911C40.0678 17.1114 39.5548 18.0448 39.0231 18.6403C38.9907 18.6773 38.9583 18.7143 38.9249 18.7524C38.6257 19.0733 38.2772 19.2916 37.9043 19.5159C37.8654 19.5415 37.8266 19.5671 37.7865 19.5935C37.6212 19.6837 37.4519 19.7358 37.272 19.7896C37.238 19.8001 37.204 19.8106 37.169 19.8215C36.1478 20.1336 35.0747 19.9727 34.1321 19.5028C33.7694 19.3024 33.4788 19.0261 33.1858 18.7376C33.1501 18.7031 33.1145 18.6686 33.0777 18.6331C32.7662 18.3098 32.5651 17.9164 32.3589 17.5215C32.3328 17.4717 32.3067 17.4218 32.2798 17.3704C31.8802 16.5292 31.86 15.3324 32.1643 14.4569C32.2363 14.2732 32.3184 14.0978 32.4075 13.9218C32.4213 13.8897 32.4351 13.8576 32.4493 13.8245C32.7513 13.1409 33.346 12.5668 33.9641 12.1706C33.9974 12.1486 34.0307 12.1266 34.065 12.1039C34.4094 11.8934 34.7944 11.7916 35.1802 11.6842C35.2229 11.672 35.2655 11.6599 35.3095 11.6473C36.5175 11.3536 37.7223 11.8364 38.6674 12.5719Z" fill="url(#paint3_linear_36_2298)"/>
<path d="M7.06378 11.1492C7.09588 11.1652 7.12799 11.1813 7.16107 11.1978C7.10484 11.3881 7.04649 11.5322 6.91785 11.6843C6.94061 11.487 6.96063 11.3211 7.06378 11.1492Z" fill="url(#paint4_linear_36_2298)"/>
<path d="M27.689 23.1643C27.7211 23.1643 27.7532 23.1643 27.7863 23.1643C27.7702 23.3248 27.7542 23.4854 27.7376 23.6508C27.6465 23.4685 27.6247 23.4058 27.6403 23.213C27.6564 23.1969 27.6724 23.1808 27.689 23.1643Z" fill="url(#paint5_linear_36_2298)"/>
<path d="M12.366 12.8517C12.3981 12.8677 12.4302 12.8838 12.4633 12.9003C12.4073 13.0204 12.3637 13.0972 12.2687 13.1922C12.2206 13.1761 12.1724 13.1601 12.1228 13.1436C12.2031 13.0472 12.2833 12.9509 12.366 12.8517Z" fill="url(#paint6_linear_36_2298)"/>
<path d="M35.618 29.9258C35.7304 30.0221 35.8428 30.1184 35.9586 30.2176C35.9264 30.2498 35.8943 30.2819 35.8613 30.3149C35.7649 30.2026 35.6686 30.0902 35.5694 29.9744C35.5854 29.9584 35.6015 29.9423 35.618 29.9258Z" fill="url(#paint7_linear_36_2298)"/>
<path d="M46.8062 25.937C46.8223 26.0012 46.8383 26.0654 46.8549 26.1316C46.7746 26.1958 46.6943 26.26 46.6116 26.3262C46.5795 26.3101 46.5474 26.2941 46.5143 26.2775C46.6107 26.1652 46.707 26.0528 46.8062 25.937Z" fill="url(#paint8_linear_36_2298)"/>
<path d="M38.8772 18.5917C38.9093 18.6238 38.9414 18.6559 38.9745 18.689C38.83 18.8094 38.83 18.8094 38.6826 18.9322C38.6826 18.7863 38.6826 18.7863 38.7799 18.6798C38.812 18.6507 38.8441 18.6217 38.8772 18.5917Z" fill="url(#paint9_linear_36_2298)"/>
</g>
<defs>
<linearGradient id="paint0_linear_36_2298" x1="14.3609" y1="0.723633" x2="14.3609" y2="31.3248" gradientUnits="userSpaceOnUse">
<stop stop-color="white"/>
<stop offset="1" stop-color="#999999"/>
</linearGradient>
<linearGradient id="paint1_linear_36_2298" x1="37.8256" y1="0.820923" x2="37.8256" y2="30.9031" gradientUnits="userSpaceOnUse">
<stop stop-color="white"/>
<stop offset="1" stop-color="#999999"/>
</linearGradient>
<linearGradient id="paint2_linear_36_2298" x1="15.4339" y1="11.5605" x2="15.4339" y2="20.1118" gradientUnits="userSpaceOnUse">
<stop stop-color="white"/>
<stop offset="1" stop-color="#999999"/>
</linearGradient>
<linearGradient id="paint3_linear_36_2298" x1="36.0269" y1="11.5601" x2="36.0269" y2="19.9824" gradientUnits="userSpaceOnUse">
<stop stop-color="white"/>
<stop offset="1" stop-color="#999999"/>
</linearGradient>
<linearGradient id="paint4_linear_36_2298" x1="7.03946" y1="11.1492" x2="7.03946" y2="11.6843" gradientUnits="userSpaceOnUse">
<stop stop-color="white"/>
<stop offset="1" stop-color="#999999"/>
</linearGradient>
<linearGradient id="paint5_linear_36_2298" x1="27.711" y1="23.1643" x2="27.711" y2="23.6508" gradientUnits="userSpaceOnUse">
<stop stop-color="white"/>
<stop offset="1" stop-color="#999999"/>
</linearGradient>
<linearGradient id="paint6_linear_36_2298" x1="12.2931" y1="12.8517" x2="12.2931" y2="13.1922" gradientUnits="userSpaceOnUse">
<stop stop-color="white"/>
<stop offset="1" stop-color="#999999"/>
</linearGradient>
<linearGradient id="paint7_linear_36_2298" x1="35.764" y1="29.9258" x2="35.764" y2="30.3149" gradientUnits="userSpaceOnUse">
<stop stop-color="white"/>
<stop offset="1" stop-color="#999999"/>
</linearGradient>
<linearGradient id="paint8_linear_36_2298" x1="46.6846" y1="25.937" x2="46.6846" y2="26.3262" gradientUnits="userSpaceOnUse">
<stop stop-color="white"/>
<stop offset="1" stop-color="#999999"/>
</linearGradient>
<linearGradient id="paint9_linear_36_2298" x1="38.8286" y1="18.5917" x2="38.8286" y2="18.9322" gradientUnits="userSpaceOnUse">
<stop stop-color="white"/>
<stop offset="1" stop-color="#999999"/>
</linearGradient>
<clipPath id="clip0_36_2298">
<rect width="51" height="32" fill="white"/>
</clipPath>
</defs>
</svg>
